<svg width="512" height="512" viewBox="0 0 512 512" fill="none" xmlns="http://www.w3.org/2000/svg">
  <path d="M256 48C141.1 48 48 141.1 48 256s93.1 208 208 208 208-93.1 208-208S370.9 48 256 48zm0 376c-92.8 0-168-75.2-168-168S163.2 88 256 88s168 75.2 168 168-75.2 168-168 168zm0-304c-75.1 0-136 60.9-136 136s60.9 136 136 136 136-60.9 136-136-60.9-136-136-136z" fill="currentColor"/>
  <path d="M256 168c-48.6 0-88 39.4-88 88s39.4 88 88 88 88-39.4 88-88-39.4-88-88-88zm0 144c-30.9 0-56-25.1-56-56s25.1-56 56-56 56 25.1 56 56-25.1 56-56 56z" fill="currentColor"/>
</svg>
